<svg xmlns="http://www.w3.org/2000/svg" width="400" height="300" fill="none" viewBox="0 0 400 300"><rect width="400" height="300" fill="#f8fafc"/><rect width="320" height="220" x="40" y="40" fill="#fff" stroke="#e2e8f0" stroke-width="2" rx="16"/><rect width="320" height="50" x="40" y="40" fill="#6366f1" style="border-radius:16px 16px 0 0"/><rect width="100" height="6" x="60" y="58" fill="#fff" opacity=".9" rx="3"/><rect width="80" height="4" x="60" y="68" fill="#fff" opacity=".7" rx="2"/><rect width="20" height="20" x="300" y="55" fill="#fff" opacity=".2" rx="3"/><rect width="2" height="8" x="302" y="50" fill="#fff" rx="1"/><rect width="2" height="8" x="314" y="50" fill="#fff" rx="1"/><rect width="12" height="2" x="304" y="60" fill="#fff" opacity=".8" rx="1"/><rect width="12" height="2" x="304" y="64" fill="#fff" opacity=".8" rx="1"/><rect width="8" height="2" x="304" y="68" fill="#fff" opacity=".8" rx="1"/><rect width="90" height="60" x="60" y="110" fill="#f0f9ff" stroke="#bfdbfe" stroke-width="1" rx="8"/><circle cx="80" cy="125" r="6" fill="#3b82f6"/><path fill="none" stroke="#fff" stroke-linecap="round" stroke-width="1.5" d="M77 125 L79 127 L83 123"/><rect width="60" height="3" x="70" y="140" fill="#3b82f6" rx="1.5"/><rect width="40" height="2" x="70" y="147" fill="#64748b" rx="1"/><rect width="50" height="2" x="70" y="152" fill="#64748b" rx="1"/><rect width="90" height="60" x="160" y="110" fill="#f0fdf4" stroke="#bbf7d0" stroke-width="1" rx="8"/><rect width="16" height="12" x="175" y="120" fill="#22c55e" rx="2"/><rect width="4" height="1" x="178" y="124" fill="#fff" rx=".5"/><rect width="6" height="1" x="178" y="126" fill="#fff" rx=".5"/><rect width="3" height="1" x="178" y="128" fill="#fff" rx=".5"/><rect width="60" height="3" x="170" y="140" fill="#22c55e" rx="1.5"/><rect width="45" height="2" x="170" y="147" fill="#64748b" rx="1"/><rect width="55" height="2" x="170" y="152" fill="#64748b" rx="1"/><rect width="90" height="60" x="260" y="110" fill="#fef3f2" stroke="#fecaca" stroke-width="1" rx="8"/><rect width="16" height="12" x="275" y="120" fill="#ef4444" rx="2"/><circle cx="279" cy="124" r="1.5" fill="#fff"/><circle cx="283" cy="124" r="1.5" fill="#fff"/><circle cx="287" cy="124" r="1.5" fill="#fff"/><rect width="8" height="1" x="279" y="127" fill="#fff" rx=".5"/><rect width="60" height="3" x="270" y="140" fill="#ef4444" rx="1.5"/><rect width="50" height="2" x="270" y="147" fill="#64748b" rx="1"/><rect width="40" height="2" x="270" y="152" fill="#64748b" rx="1"/><rect width="290" height="60" x="60" y="185" fill="#fefce8" stroke="#fde047" stroke-width="1" rx="8"/><circle cx="85" cy="205" r="12" fill="#eab308"/><path fill="#fff" d="M80 200 Q85 195 90 200 Q88 205 85 210 Q82 205 80 200"/><circle cx="83" cy="202" r="1" fill="#eab308"/><circle cx="87" cy="202" r="1" fill="#eab308"/><rect width="200" height="4" x="110" y="195" fill="#eab308" rx="2"/><rect width="180" height="3" x="110" y="203" fill="#64748b" rx="1.5"/><rect width="220" height="3" x="110" y="210" fill="#64748b" rx="1.5"/><rect width="160" height="3" x="110" y="217" fill="#64748b" rx="1.5"/><rect width="190" height="3" x="110" y="224" fill="#64748b" rx="1.5"/><g opacity=".7"><path fill="#fbbf24" d="M330 100 L332 105 L337 107 L332 109 L330 114 L328 109 L323 107 L328 105 Z"/><path fill="#f59e0b" d="M350 140 L351 143 L354 144 L351 145 L350 148 L349 145 L346 144 L349 143 Z"/><path fill="#fbbf24" d="M320 200 L321.5 203 L324.5 204.5 L321.5 206 L320 209 L318.5 206 L315.5 204.5 L318.5 203 Z"/></g></svg>